<svg width="17" height="21" viewBox="0 0 17 21" fill="none" xmlns="http://www.w3.org/2000/svg">
<path fill-rule="evenodd" clip-rule="evenodd" d="M8.25049 7.25C7.28549 7.25 6.50049 8.035 6.50049 9.001C6.50049 9.966 7.28549 10.75 8.25049 10.75C9.21549 10.75 10.0005 9.966 10.0005 9.001C10.0005 8.035 9.21549 7.25 8.25049 7.25ZM8.25049 12.25C6.45849 12.25 5.00049 10.793 5.00049 9.001C5.00049 7.208 6.45849 5.75 8.25049 5.75C10.0425 5.75 11.5005 7.208 11.5005 9.001C11.5005 10.793 10.0425 12.25 8.25049 12.25Z" fill="#424242"/>
<mask id="mask0_59_1137" style="mask-type:luminance" maskUnits="userSpaceOnUse" x="0" y="0" width="17" height="21">
<path fill-rule="evenodd" clip-rule="evenodd" d="M0 0.75H16.4995V20.25H0V0.75Z" fill="white"/>
</mask>
<g mask="url(#mask0_59_1137)">
<path fill-rule="evenodd" clip-rule="evenodd" d="M8.24951 2.25C4.52751 2.25 1.49951 5.307 1.49951 9.063C1.49951 13.842 7.12351 18.498 8.24951 18.746C9.37551 18.497 14.9995 13.841 14.9995 9.063C14.9995 5.307 11.9715 2.25 8.24951 2.25ZM8.24951 20.25C6.45551 20.25 -0.000488281 14.698 -0.000488281 9.063C-0.000488281 4.479 3.70051 0.75 8.24951 0.75C12.7985 0.75 16.4995 4.479 16.4995 9.063C16.4995 14.698 10.0435 20.25 8.24951 20.25Z" fill="#424242"/>
</g>
</svg>
