<svg width="27" height="28" viewBox="0 0 27 28" fill="none" xmlns="http://www.w3.org/2000/svg">
<path d="M23.8699 9.99551L17.2823 9.0381L14.3374 3.06793C14.257 2.90447 14.1246 2.77214 13.9612 2.69171C13.5512 2.48933 13.0531 2.65798 12.8481 3.06793L9.90321 9.0381L3.31552 9.99551C3.1339 10.0215 2.96785 10.1071 2.84071 10.2368C2.68701 10.3948 2.60232 10.6073 2.60524 10.8277C2.60816 11.0481 2.69845 11.2583 2.85628 11.4122L7.62256 16.0591L6.4965 22.6208C6.4701 22.7735 6.48699 22.9305 6.54526 23.074C6.60353 23.2175 6.70086 23.3418 6.8262 23.4329C6.95153 23.5239 7.09987 23.578 7.25439 23.589C7.4089 23.6 7.56341 23.5675 7.7004 23.4952L13.5927 20.3973L19.4851 23.4952C19.6459 23.5808 19.8327 23.6094 20.0118 23.5782C20.4632 23.5004 20.7668 23.0723 20.689 22.6208L19.5629 16.0591L24.3292 11.4122C24.4589 11.285 24.5445 11.119 24.5705 10.9373C24.6405 10.4833 24.324 10.063 23.8699 9.99551Z" fill="black"/>
</svg>
