<svg width="37" height="34" viewBox="0 0 37 34" fill="none" xmlns="http://www.w3.org/2000/svg">
<path d="M24.2701 10.8482L24.3902 11.0755L24.645 11.1101L35.7354 12.6155C35.7357 12.6155 35.736 12.6156 35.7362 12.6156C36.2601 12.6887 36.5563 13.1202 36.4903 13.5198L36.4903 13.5198L36.4894 13.5257C36.464 13.6919 36.3793 13.8511 36.2406 13.9784C36.2404 13.9786 36.2401 13.9789 36.2398 13.9792L28.2156 21.2858L28.0103 21.4728L28.0605 21.7459L29.9564 32.0645L29.9565 32.0649C30.0308 32.4673 29.7444 32.903 29.2285 32.9861L29.2278 32.9862C29.026 33.019 28.8178 32.988 28.6438 32.9014L28.6416 32.9004L18.7205 28.0287L18.5001 27.9205L18.2797 28.0287L8.35861 32.9004L8.35786 32.9007C8.20723 32.975 8.03494 33.0094 7.86125 32.9978C7.68758 32.9862 7.52361 32.9295 7.38776 32.8374L7.10707 33.2512L7.38775 32.8374C7.25215 32.7454 7.15154 32.623 7.0926 32.4874C7.03385 32.3523 7.01744 32.2065 7.0436 32.0652L7.04373 32.0645L8.9397 21.7459L8.98988 21.4728L8.78457 21.2858L0.75945 13.9783L0.759417 13.9783C0.591675 13.8256 0.502947 13.6245 0.500073 13.4218C0.497204 13.2195 0.57988 13.0172 0.74216 12.8611C0.878466 12.7314 1.05975 12.6429 1.26218 12.6158L1.26331 12.6157L12.3552 11.1101L12.61 11.0755L12.7301 10.8482L17.6871 1.46227C17.6873 1.4619 17.6875 1.46154 17.6877 1.46118C17.9008 1.06469 18.4467 0.874599 18.9111 1.08872L18.9116 1.08898C19.0913 1.17156 19.2297 1.30412 19.3115 1.45934L19.3118 1.45978L24.2701 10.8482Z" fill="#FFC700" stroke="black"/>
</svg>
